<svg width="137" height="66" viewBox="0 0 137 66" fill="none" xmlns="http://www.w3.org/2000/svg">
<path d="M1.40625 37V12.3906H4.46484V23.1133H7.62891V26.1016H4.46484V37H1.40625ZM9.38672 26.1016V23.1133H12.5156V12.3906H15.6094V37H12.5156V26.1016H9.38672ZM18.3516 31.7969V23.1133C18.3516 22.0117 18.8438 20.9336 19.8281 19.8789C21.0469 18.6133 22.5703 17.9805 24.3984 17.9805V20.8281C23.0156 20.8281 22.0547 21.4023 21.5156 22.5508C21.3516 22.9023 21.2695 23.2539 21.2695 23.6055V31.3398C21.2695 32.207 21.668 32.9453 22.4648 33.5547C23.0273 33.9766 23.6719 34.1875 24.3984 34.1875V37.0352C22.1719 37.0352 20.4492 36.1328 19.2305 34.3281C18.6445 33.4375 18.3516 32.5938 18.3516 31.7969ZM25.9102 37.0352V34.1875C27.1523 34.1875 28.043 33.625 28.582 32.5C28.7695 32.125 28.8633 31.7617 28.8633 31.4102V23.6055C28.8633 22.6445 28.4531 21.8828 27.6328 21.3203C27.1172 20.9922 26.5312 20.8281 25.875 20.8281V17.9805C28.0312 17.9805 29.6953 18.8594 30.8672 20.6172C31.4531 21.4844 31.7461 22.3164 31.7461 23.1133V31.7969C31.7461 32.9453 31.2539 34.0586 30.2695 35.1367C29.1211 36.3789 27.668 37.0117 25.9102 37.0352ZM34.418 31.9375V18.0156H37.4062V31.5859C37.4062 32.4297 37.8281 33.1328 38.6719 33.6953C39.2344 34.0469 39.8555 34.2227 40.5352 34.2227V37.1758C38.2852 37.1758 36.5508 36.2969 35.332 34.5391C34.7227 33.6484 34.418 32.7812 34.418 31.9375ZM42.082 37.1758V34.2227C43.3477 34.2227 44.2734 33.7188 44.8594 32.7109C45.0703 32.3359 45.1758 31.9609 45.1758 31.5859V18.0156H48.1641V31.9375C48.1641 33.0391 47.6602 34.1289 46.6523 35.207C45.4336 36.4961 43.9102 37.1523 42.082 37.1758ZM50.2031 32.0078L52.9805 31.4805C52.9805 32.5352 53.5312 33.3672 54.6328 33.9766C55.1719 34.2344 55.6875 34.375 56.1797 34.3984V37.1758C53.9062 37.1758 52.207 36.3555 51.082 34.7148C50.4961 33.8477 50.2031 32.9453 50.2031 32.0078ZM50.3789 23.3594C50.3789 21.2266 51.3516 19.6445 53.2969 18.6133C54.2344 18.1211 55.1719 17.875 56.1094 17.875V20.6172C55.0312 20.6172 54.1992 21.0625 53.6133 21.9531C53.3086 22.3984 53.1562 22.8672 53.1562 23.3594C53.1562 24.1094 53.7422 24.7188 54.9141 25.1875C55.8047 25.5625 57.5273 26.0547 60.082 26.6641C61.6758 26.9922 62.8125 27.7773 63.4922 29.0195C63.8438 29.6758 64.0195 30.4141 64.0195 31.2344C64.0195 33.4844 63.1172 35.1484 61.3125 36.2266C60.2578 36.8594 59.0508 37.1758 57.6914 37.1758V34.3984C58.7695 34.3984 59.6719 34.0234 60.3984 33.2734C60.9141 32.7344 61.1719 32.1016 61.1719 31.375C61.1719 30.4375 60.2461 29.6875 58.3945 29.125C57.9258 28.9844 57.1758 28.7852 56.1445 28.5273C55.043 28.2695 54.2461 28.0586 53.7539 27.8945C51.9727 27.1914 50.8945 26.125 50.5195 24.6953C50.4258 24.2734 50.3789 23.8281 50.3789 23.3594ZM57.6562 20.6523V17.875C59.6719 17.875 61.3008 18.625 62.543 20.125C63.3164 21.0859 63.7031 22.0938 63.7031 23.1484L60.9258 23.6055C60.9258 22.3164 60.2227 21.4141 58.8164 20.8984C58.3945 20.7344 58.0078 20.6523 57.6562 20.6523ZM66.0938 31.7969V23.0781C66.1172 22 66.6328 20.9336 67.6406 19.8789C68.8594 18.6367 70.3359 18.0039 72.0703 17.9805V20.7578C70.9453 20.7578 70.0664 21.25 69.4336 22.2344C69.1758 22.6562 69.0469 23.043 69.0469 23.3945V25.7852H76.9219V23.3945C76.9219 22.3398 76.3828 21.5664 75.3047 21.0742C74.8125 20.8398 74.3086 20.7227 73.793 20.7227V17.9805C75.4102 17.9805 76.8516 18.5547 78.1172 19.7031C79.1719 20.7109 79.7109 21.8242 79.7344 23.043V28.6328H69.0469V31.7969C69.0469 32.4531 69.4219 33.0625 70.1719 33.625C70.7812 34.0469 71.4258 34.2578 72.1055 34.2578V37C69.9727 37 68.2969 36.1328 67.0781 34.3984C66.4219 33.4844 66.0938 32.6172 66.0938 31.7969ZM73.793 37V34.2227C75.1992 34.2227 76.2539 33.6133 76.957 32.3945C77.0977 32.1367 77.2031 31.8906 77.2734 31.6562L79.7695 32.5703C79.3477 34.1875 78.3867 35.4062 76.8867 36.2266C75.9258 36.7422 74.8945 37 73.793 37ZM81.4922 12.3906H84.5859L90.8438 33.7656L89.7188 37H88.6289L81.4922 12.3906ZM90.0703 25.4336L94.4297 12.3906H97.5234C97.3125 13.0703 96.4336 15.7891 94.8867 20.5469C93.082 26.0781 92.0508 29.2539 91.793 30.0742H91.4414L90.0703 25.4336ZM99.2109 30.1445V18.5781C99.2109 17.3359 99.7383 16.0703 100.793 14.7812C102.199 13.0938 103.98 12.2383 106.137 12.2148V15.2734C104.707 15.2734 103.594 16 102.797 17.4531C102.469 18.0859 102.305 18.6484 102.305 19.1406V30.1445C102.305 31.6211 103.031 32.7695 104.484 33.5898C105.094 33.9414 105.633 34.1172 106.102 34.1172V37.1758C104.766 37.1758 103.43 36.6953 102.094 35.7344C100.195 34.3281 99.2344 32.4648 99.2109 30.1445ZM108.035 37.1758V34.1172C108.855 34.1172 109.688 33.7539 110.531 33.0273C111.422 32.2305 111.879 31.2695 111.902 30.1445V19.1406C111.902 18.2266 111.527 17.3477 110.777 16.5039C110.004 15.707 109.09 15.2969 108.035 15.2734V12.2148C110.402 12.2148 112.301 13.2344 113.73 15.2734C114.551 16.4453 114.961 17.5469 114.961 18.5781V30.1445C114.961 32.7461 113.801 34.7383 111.48 36.1211C110.262 36.8242 109.113 37.1758 108.035 37.1758ZM117.809 37H120.867V12.3906H117.809V37ZM122.625 25.9961H126.422C129.492 25.9727 131.414 24.8008 132.188 22.4805C132.492 21.543 132.645 20.4297 132.645 19.1406C132.645 14.8516 130.711 12.6016 126.844 12.3906C126.703 12.3906 126.562 12.3906 126.422 12.3906H122.625V15.3438H125.93C128.297 15.3906 129.492 16.6562 129.516 19.1406C129.469 21.6953 128.285 22.9844 125.965 23.0078H122.625V25.9961Z" fill="white"/>
<path d="M0.312 63L3.624 58.608L0.516 54.48H1.5L4.332 58.272H5.496V54.48H6.324V58.272H7.476L10.32 54.48H11.304L8.184 58.608L11.496 63H10.524L7.5 59.04H6.324V63H5.496V59.04H4.308L1.284 63H0.312ZM14.3802 63V54.48H15.2082V61.848L20.4882 54.48H21.2682V63H20.4402V55.764L15.2202 63H14.3802ZM30.6494 63V55.224H27.1694L27.1214 57.024C27.0814 58.2 26.9974 59.176 26.8694 59.952C26.7414 60.728 26.5614 61.34 26.3294 61.788C26.0974 62.228 25.8094 62.544 25.4654 62.736C25.1294 62.92 24.7334 63.012 24.2774 63.012V62.268C24.5894 62.268 24.8654 62.188 25.1054 62.028C25.3454 61.868 25.5494 61.588 25.7174 61.188C25.8854 60.788 26.0174 60.236 26.1134 59.532C26.2174 58.82 26.2854 57.92 26.3174 56.832L26.3894 54.48H31.4774V63H30.6494ZM38.4802 63.06C37.8802 63.06 37.3362 62.94 36.8482 62.7C36.3602 62.452 35.9402 62.124 35.5882 61.716C35.2362 61.308 34.9642 60.848 34.7722 60.336C34.5802 59.816 34.4842 59.284 34.4842 58.74C34.4842 58.172 34.5842 57.632 34.7842 57.12C34.9842 56.6 35.2642 56.14 35.6242 55.74C35.9922 55.332 36.4202 55.012 36.9082 54.78C37.3962 54.54 37.9242 54.42 38.4922 54.42C39.0842 54.42 39.6242 54.544 40.1122 54.792C40.6002 55.04 41.0202 55.372 41.3722 55.788C41.7322 56.204 42.0042 56.668 42.1882 57.18C42.3802 57.692 42.4762 58.216 42.4762 58.752C42.4762 59.32 42.3762 59.864 42.1762 60.384C41.9762 60.896 41.6962 61.356 41.3362 61.764C40.9762 62.164 40.5522 62.48 40.0642 62.712C39.5762 62.944 39.0482 63.06 38.4802 63.06ZM35.3242 58.74C35.3242 59.204 35.4002 59.648 35.5522 60.072C35.7042 60.496 35.9202 60.876 36.2002 61.212C36.4802 61.548 36.8122 61.816 37.1962 62.016C37.5882 62.208 38.0162 62.304 38.4802 62.304C38.9682 62.304 39.4042 62.204 39.7882 62.004C40.1802 61.796 40.5122 61.52 40.7842 61.176C41.0642 60.832 41.2762 60.452 41.4202 60.036C41.5642 59.612 41.6362 59.18 41.6362 58.74C41.6362 58.276 41.5602 57.832 41.4082 57.408C41.2562 56.984 41.0362 56.604 40.7482 56.268C40.4682 55.932 40.1362 55.668 39.7522 55.476C39.3682 55.284 38.9442 55.188 38.4802 55.188C38.0002 55.188 37.5642 55.288 37.1722 55.488C36.7882 55.688 36.4562 55.96 36.1762 56.304C35.9042 56.64 35.6922 57.02 35.5402 57.444C35.3962 57.868 35.3242 58.3 35.3242 58.74ZM45.5479 63V54.48H46.3759V61.848L51.6559 54.48H52.4359V63H51.6079V55.764L46.3879 63H45.5479ZM49.0039 53.76C48.4119 53.76 47.9639 53.632 47.6599 53.376C47.3559 53.12 47.1999 52.808 47.1919 52.44H47.8519C47.8599 52.648 47.9439 52.836 48.1039 53.004C48.2719 53.172 48.5719 53.256 49.0039 53.256C49.4279 53.256 49.7199 53.18 49.8799 53.028C50.0479 52.868 50.1359 52.672 50.1439 52.44H50.8039C50.7959 52.808 50.6399 53.12 50.3359 53.376C50.0399 53.632 49.5959 53.76 49.0039 53.76ZM60.5557 63V54.48H61.3957V58.272H62.6797L65.6077 54.48H66.5797L63.3757 58.608L66.7837 63H65.7517L62.7037 59.04H61.3957V63H60.5557ZM72.5644 63.06C71.9644 63.06 71.4204 62.94 70.9324 62.7C70.4444 62.452 70.0244 62.124 69.6724 61.716C69.3204 61.308 69.0484 60.848 68.8564 60.336C68.6644 59.816 68.5684 59.284 68.5684 58.74C68.5684 58.172 68.6684 57.632 68.8684 57.12C69.0684 56.6 69.3484 56.14 69.7084 55.74C70.0764 55.332 70.5044 55.012 70.9924 54.78C71.4804 54.54 72.0084 54.42 72.5764 54.42C73.1684 54.42 73.7084 54.544 74.1964 54.792C74.6844 55.04 75.1044 55.372 75.4564 55.788C75.8164 56.204 76.0884 56.668 76.2724 57.18C76.4644 57.692 76.5604 58.216 76.5604 58.752C76.5604 59.32 76.4604 59.864 76.2604 60.384C76.0604 60.896 75.7804 61.356 75.4204 61.764C75.0604 62.164 74.6364 62.48 74.1484 62.712C73.6604 62.944 73.1324 63.06 72.5644 63.06ZM69.4084 58.74C69.4084 59.204 69.4844 59.648 69.6364 60.072C69.7884 60.496 70.0044 60.876 70.2844 61.212C70.5644 61.548 70.8964 61.816 71.2804 62.016C71.6724 62.208 72.1004 62.304 72.5644 62.304C73.0524 62.304 73.4884 62.204 73.8724 62.004C74.2644 61.796 74.5964 61.52 74.8684 61.176C75.1484 60.832 75.3604 60.452 75.5044 60.036C75.6484 59.612 75.7204 59.18 75.7204 58.74C75.7204 58.276 75.6444 57.832 75.4924 57.408C75.3404 56.984 75.1204 56.604 74.8324 56.268C74.5524 55.932 74.2204 55.668 73.8364 55.476C73.4524 55.284 73.0284 55.188 72.5644 55.188C72.0844 55.188 71.6484 55.288 71.2564 55.488C70.8724 55.688 70.5404 55.96 70.2604 56.304C69.9884 56.64 69.7764 57.02 69.6244 57.444C69.4804 57.868 69.4084 58.3 69.4084 58.74ZM87.1321 63V56.064L84.0481 61.452H83.5201L80.4241 56.064V63H79.5841V54.48H80.4481L83.7721 60.312L87.1201 54.48H87.9721V63H87.1321ZM91.5475 63V54.48H97.9795V63H97.1395V55.224H92.3875V63H91.5475ZM107.314 63V55.224H103.834L103.786 57.024C103.746 58.2 103.662 59.176 103.534 59.952C103.406 60.728 103.226 61.34 102.994 61.788C102.762 62.228 102.474 62.544 102.13 62.736C101.794 62.92 101.398 63.012 100.942 63.012V62.268C101.254 62.268 101.53 62.188 101.77 62.028C102.01 61.868 102.214 61.588 102.382 61.188C102.55 60.788 102.682 60.236 102.778 59.532C102.882 58.82 102.95 57.92 102.982 56.832L103.054 54.48H108.142V63H107.314ZM117.437 62.256V63H111.713V54.48H117.329V55.224H112.553V58.296H116.717V59.004H112.553V62.256H117.437ZM120.465 63V54.48H121.305V58.272H122.589L125.517 54.48H126.489L123.285 58.608L126.693 63H125.661L122.613 59.04H121.305V63H120.465ZM128.478 58.68C128.478 58.168 128.566 57.66 128.742 57.156C128.926 56.652 129.19 56.196 129.534 55.788C129.878 55.372 130.302 55.044 130.806 54.804C131.31 54.556 131.882 54.432 132.522 54.432C133.274 54.432 133.922 54.608 134.466 54.96C135.01 55.304 135.41 55.748 135.666 56.292L135.006 56.7C134.822 56.324 134.59 56.028 134.31 55.812C134.03 55.588 133.73 55.428 133.41 55.332C133.098 55.236 132.786 55.188 132.474 55.188C131.962 55.188 131.51 55.292 131.118 55.5C130.726 55.7 130.394 55.972 130.122 56.316C129.858 56.66 129.658 57.04 129.522 57.456C129.386 57.872 129.318 58.296 129.318 58.728C129.318 59.2 129.398 59.652 129.558 60.084C129.718 60.508 129.942 60.888 130.23 61.224C130.518 61.56 130.854 61.828 131.238 62.028C131.63 62.22 132.054 62.316 132.51 62.316C132.83 62.316 133.158 62.26 133.494 62.148C133.83 62.036 134.142 61.864 134.43 61.632C134.718 61.4 134.954 61.1 135.138 60.732L135.834 61.092C135.65 61.516 135.374 61.876 135.006 62.172C134.646 62.468 134.238 62.692 133.782 62.844C133.334 62.996 132.894 63.072 132.462 63.072C131.878 63.072 131.342 62.948 130.854 62.7C130.366 62.444 129.942 62.108 129.582 61.692C129.23 61.268 128.958 60.796 128.766 60.276C128.574 59.748 128.478 59.216 128.478 58.68Z" fill="white"/>
</svg>
