<?xml version="1.0" standalone="no"?>
<!DOCTYPE svg PUBLIC "-//W3C//DTD SVG 20010904//EN"
 "http://www.w3.org/TR/2001/REC-SVG-20010904/DTD/svg10.dtd">
<svg version="1.0" xmlns="http://www.w3.org/2000/svg"
 width="317.000000pt" height="317.000000pt" viewBox="0 0 317.000000 317.000000"
 preserveAspectRatio="xMidYMid meet">
<metadata>
Created by potrace 1.11, written by Peter Selinger 2001-2013
</metadata>
<g transform="translate(0.000000,317.000000) scale(0.100000,-0.100000)"
fill="#000000" stroke="none">
<path d="M1275 2875 c-155 -25 -248 -48 -375 -95 -134 -49 -144 -54 -173 -73
-15 -9 -27 -15 -27 -12 0 3 -25 -10 -55 -30 -31 -19 -58 -35 -61 -35 -2 0 -10
-5 -17 -10 -7 -6 -41 -32 -77 -59 -169 -125 -309 -328 -340 -493 -20 -103 -22
-135 -8 -140 10 -3 2866 -2 2890 1 10 1 1 87 -15 156 -59 247 -287 487 -601
635 -134 64 -305 121 -402 135 -21 4 -46 8 -54 11 -52 14 -200 26 -360 29
-152 2 -210 -2 -325 -20z m83 -131 c23 -7 30 -28 12 -39 -18 -11 -92 -14 -117
-4 -25 9 -31 34 -10 42 17 8 88 8 115 1z m710 -105 c7 -35 -128 -68 -141 -35
-6 15 24 40 58 49 38 10 80 3 83 -14z m-1081 -166 c5 -14 -49 -44 -86 -48 -31
-3 -71 11 -71 25 0 31 147 53 157 23z m680 -35 c25 -20 -8 -40 -67 -40 -73 1
-102 31 -48 51 27 10 98 3 115 -11z m1017 -24 c22 -8 20 -31 -3 -39 -39 -12
-93 -15 -112 -5 -24 13 -25 37 -1 43 27 7 99 8 116 1z m-1434 -161 c-1 -25
-65 -62 -100 -58 -8 1 -23 3 -32 3 -30 3 -20 32 15 47 34 15 117 20 117 8z
m1083 -45 c50 -25 43 -43 -15 -42 -50 0 -98 25 -98 50 0 21 62 17 113 -8z
m-1720 -65 c24 -11 37 -22 35 -32 -6 -28 -92 -17 -131 18 -17 15 -18 16 -1 28
19 14 37 11 97 -14z m1156 -37 c11 -12 10 -16 -7 -25 -33 -18 -77 -19 -112 -5
-34 15 -32 30 4 43 29 11 98 3 115 -13z"/>
<path d="M103 1834 c-60 -59 -38 -145 42 -161 22 -5 683 -9 1468 -8 l1429 0
29 33 c39 43 40 98 3 136 -32 32 154 28 -1594 30 l-1345 2 -32 -32z"/>
<path d="M177 1585 c-76 -26 -141 -95 -166 -177 -7 -22 -11 -82 -8 -155 3 -99
7 -125 26 -162 31 -60 79 -107 132 -130 42 -18 91 -19 1424 -19 1333 0 1381 1
1424 19 53 23 100 70 132 130 21 38 24 60 26 167 1 74 -3 136 -10 156 -20 58
-73 123 -123 152 -44 26 -59 29 -164 32 l-115 4 -81 -79 c-169 -166 -302 -244
-423 -246 -107 -2 -134 13 -315 186 -62 59 -91 74 -136 72 -33 -1 -49 -7 -125
-48 -52 -29 -96 -11 -192 79 l-38 34 -615 -1 c-480 0 -623 -3 -653 -14z"/>
<path d="M135 870 c-8 -13 3 -111 21 -184 28 -112 102 -215 198 -271 48 -28
151 -72 187 -79 116 -23 177 -33 264 -43 90 -9 1508 -10 1600 0 39 4 81 9 95
12 110 21 141 29 180 42 134 44 252 137 298 237 32 66 52 152 55 227 l2 64
-700 -1 c-835 -1 -939 -4 -1125 -40 -258 -50 -430 -124 -538 -234 -23 -24 -44
-41 -46 -39 -2 2 -11 20 -20 39 -33 73 -68 127 -133 201 l-68 78 -132 0 c-77
1 -134 -3 -138 -9z"/>
</g>
</svg>
